<svg width="476" height="391" viewBox="0 0 476 391" fill="none" xmlns="http://www.w3.org/2000/svg">
<path d="M92.3906 217.859V270.594C92.3906 273.031 91.5938 274.719 90 275.656C88.4062 276.688 86.5312 277.203 84.375 277.203C82.6875 277.203 81 276.969 79.3125 276.5C77.7188 276.031 76.2656 275.375 74.9531 274.531C73.6406 273.781 72.5625 272.938 71.7188 272C70.9688 270.969 70.5938 269.891 70.5938 268.766V217.297H60.1875C56.9062 217.297 53.2031 217.344 49.0781 217.438C45.0469 217.531 41.0156 217.625 36.9844 217.719C32.9531 217.812 29.1094 217.906 25.4531 218C21.8906 218.094 18.8906 218.141 16.4531 218.141C14.7656 218.141 13.125 217.719 11.5312 216.875C10.0312 215.938 8.67188 214.859 7.45312 213.641C6.32812 212.328 5.39062 210.922 4.64062 209.422C3.89062 207.922 3.51562 206.609 3.51562 205.484C3.51562 203.609 3.9375 202.203 4.78125 201.266C5.71875 200.328 6.70312 199.344 7.73438 198.312C11.6719 188.375 14.7188 178.297 16.875 168.078C19.125 157.766 20.8125 147.969 21.9375 138.688C23.0625 129.406 23.7656 120.969 24.0469 113.375C24.3281 105.687 24.4688 99.5 24.4688 94.8125C24.4688 93.7813 24.375 92.7031 24.1875 91.5781C24.0938 90.3594 23.9531 89.2344 23.7656 88.2031C23.5781 87.1719 23.3906 86.3281 23.2031 85.6719C23.1094 84.9219 23.0625 84.4531 23.0625 84.2656C23.0625 81.9219 25.6406 80.75 30.7969 80.75C32.3906 80.75 34.0781 80.9844 35.8594 81.4531C37.7344 81.9219 39.4688 82.7656 41.0625 83.9844C42.6562 85.2031 43.9688 86.9375 45 89.1875C46.125 91.4375 46.6875 94.2969 46.6875 97.7656C46.6875 103.766 46.4062 110.891 45.8438 119.141C45.2812 127.297 44.3438 135.875 43.0312 144.875C41.7188 153.781 39.9844 162.781 37.8281 171.875C35.7656 180.875 33.2344 189.172 30.2344 196.766C35.4844 196.578 41.1562 196.438 47.25 196.344C53.4375 196.25 59.2969 196.203 64.8281 196.203H70.5938V84.5469C70.5938 82.4844 70.4062 80.8438 70.0312 79.625C69.75 78.3125 69.4219 77.3281 69.0469 76.6719C68.7656 75.9219 68.4375 75.3594 68.0625 74.9844C67.7812 74.5156 67.6406 74.0469 67.6406 73.5781C67.6406 73.1094 67.9219 72.6875 68.4844 72.3125C69.0469 71.8438 69.7969 71.4688 70.7344 71.1875C71.6719 70.9062 72.6562 70.7188 73.6875 70.625C74.8125 70.4375 75.8906 70.3438 76.9219 70.3438C81.7031 70.3438 85.4531 71.6094 88.1719 74.1406C90.9844 76.5781 92.3906 79.5781 92.3906 83.1406V196.484H99.9844C101.109 196.484 102 196.297 102.656 195.922C103.312 195.453 103.828 194.984 104.203 194.516C104.672 194.047 105.094 193.625 105.469 193.25C105.938 192.781 106.5 192.547 107.156 192.547C107.812 192.547 108.328 192.828 108.703 193.391C109.078 193.859 109.359 194.516 109.547 195.359C109.828 196.109 110.016 197 110.109 198.031C110.203 198.969 110.25 199.906 110.25 200.844C110.25 203.094 110.016 205.25 109.547 207.312C109.172 209.375 108.516 211.203 107.578 212.797C106.734 214.297 105.609 215.516 104.203 216.453C102.797 217.391 101.109 217.859 99.1406 217.859H92.3906Z" fill="black"/>
<path d="M92.3906 217.859V270.594C92.3906 273.031 91.5938 274.719 90 275.656C88.4062 276.688 86.5312 277.203 84.375 277.203C82.6875 277.203 81 276.969 79.3125 276.5C77.7188 276.031 76.2656 275.375 74.9531 274.531C73.6406 273.781 72.5625 272.938 71.7188 272C70.9688 270.969 70.5938 269.891 70.5938 268.766V217.297H60.1875C56.9062 217.297 53.2031 217.344 49.0781 217.438C45.0469 217.531 41.0156 217.625 36.9844 217.719C32.9531 217.812 29.1094 217.906 25.4531 218C21.8906 218.094 18.8906 218.141 16.4531 218.141C14.7656 218.141 13.125 217.719 11.5312 216.875C10.0312 215.938 8.67188 214.859 7.45312 213.641C6.32812 212.328 5.39062 210.922 4.64062 209.422C3.89062 207.922 3.51562 206.609 3.51562 205.484C3.51562 203.609 3.9375 202.203 4.78125 201.266C5.71875 200.328 6.70312 199.344 7.73438 198.312C11.6719 188.375 14.7188 178.297 16.875 168.078C19.125 157.766 20.8125 147.969 21.9375 138.688C23.0625 129.406 23.7656 120.969 24.0469 113.375C24.3281 105.687 24.4688 99.5 24.4688 94.8125C24.4688 93.7813 24.375 92.7031 24.1875 91.5781C24.0938 90.3594 23.9531 89.2344 23.7656 88.2031C23.5781 87.1719 23.3906 86.3281 23.2031 85.6719C23.1094 84.9219 23.0625 84.4531 23.0625 84.2656C23.0625 81.9219 25.6406 80.75 30.7969 80.75C32.3906 80.75 34.0781 80.9844 35.8594 81.4531C37.7344 81.9219 39.4688 82.7656 41.0625 83.9844C42.6562 85.2031 43.9688 86.9375 45 89.1875C46.125 91.4375 46.6875 94.2969 46.6875 97.7656C46.6875 103.766 46.4062 110.891 45.8438 119.141C45.2812 127.297 44.3438 135.875 43.0312 144.875C41.7188 153.781 39.9844 162.781 37.8281 171.875C35.7656 180.875 33.2344 189.172 30.2344 196.766C35.4844 196.578 41.1562 196.438 47.25 196.344C53.4375 196.25 59.2969 196.203 64.8281 196.203H70.5938V84.5469C70.5938 82.4844 70.4062 80.8438 70.0312 79.625C69.75 78.3125 69.4219 77.3281 69.0469 76.6719C68.7656 75.9219 68.4375 75.3594 68.0625 74.9844C67.7812 74.5156 67.6406 74.0469 67.6406 73.5781C67.6406 73.1094 67.9219 72.6875 68.4844 72.3125C69.0469 71.8438 69.7969 71.4688 70.7344 71.1875C71.6719 70.9062 72.6562 70.7188 73.6875 70.625C74.8125 70.4375 75.8906 70.3438 76.9219 70.3438C81.7031 70.3438 85.4531 71.6094 88.1719 74.1406C90.9844 76.5781 92.3906 79.5781 92.3906 83.1406V196.484H99.9844C101.109 196.484 102 196.297 102.656 195.922C103.312 195.453 103.828 194.984 104.203 194.516C104.672 194.047 105.094 193.625 105.469 193.25C105.938 192.781 106.5 192.547 107.156 192.547C107.812 192.547 108.328 192.828 108.703 193.391C109.078 193.859 109.359 194.516 109.547 195.359C109.828 196.109 110.016 197 110.109 198.031C110.203 198.969 110.25 199.906 110.25 200.844C110.25 203.094 110.016 205.25 109.547 207.312C109.172 209.375 108.516 211.203 107.578 212.797C106.734 214.297 105.609 215.516 104.203 216.453C102.797 217.391 101.109 217.859 99.1406 217.859H92.3906Z" fill="url(#paint0_linear)"/>
<path d="M456.391 217.859V270.594C456.391 273.031 455.594 274.719 454 275.656C452.406 276.688 450.531 277.203 448.375 277.203C446.688 277.203 445 276.969 443.312 276.5C441.719 276.031 440.266 275.375 438.953 274.531C437.641 273.781 436.562 272.938 435.719 272C434.969 270.969 434.594 269.891 434.594 268.766V217.297H424.188C420.906 217.297 417.203 217.344 413.078 217.438C409.047 217.531 405.016 217.625 400.984 217.719C396.953 217.812 393.109 217.906 389.453 218C385.891 218.094 382.891 218.141 380.453 218.141C378.766 218.141 377.125 217.719 375.531 216.875C374.031 215.938 372.672 214.859 371.453 213.641C370.328 212.328 369.391 210.922 368.641 209.422C367.891 207.922 367.516 206.609 367.516 205.484C367.516 203.609 367.938 202.203 368.781 201.266C369.719 200.328 370.703 199.344 371.734 198.312C375.672 188.375 378.719 178.297 380.875 168.078C383.125 157.766 384.812 147.969 385.938 138.688C387.062 129.406 387.766 120.969 388.047 113.375C388.328 105.687 388.469 99.5 388.469 94.8125C388.469 93.7813 388.375 92.7031 388.188 91.5781C388.094 90.3594 387.953 89.2344 387.766 88.2031C387.578 87.1719 387.391 86.3281 387.203 85.6719C387.109 84.9219 387.062 84.4531 387.062 84.2656C387.062 81.9219 389.641 80.75 394.797 80.75C396.391 80.75 398.078 80.9844 399.859 81.4531C401.734 81.9219 403.469 82.7656 405.062 83.9844C406.656 85.2031 407.969 86.9375 409 89.1875C410.125 91.4375 410.688 94.2969 410.688 97.7656C410.688 103.766 410.406 110.891 409.844 119.141C409.281 127.297 408.344 135.875 407.031 144.875C405.719 153.781 403.984 162.781 401.828 171.875C399.766 180.875 397.234 189.172 394.234 196.766C399.484 196.578 405.156 196.438 411.25 196.344C417.438 196.25 423.297 196.203 428.828 196.203H434.594V84.5469C434.594 82.4844 434.406 80.8438 434.031 79.625C433.75 78.3125 433.422 77.3281 433.047 76.6719C432.766 75.9219 432.438 75.3594 432.062 74.9844C431.781 74.5156 431.641 74.0469 431.641 73.5781C431.641 73.1094 431.922 72.6875 432.484 72.3125C433.047 71.8438 433.797 71.4688 434.734 71.1875C435.672 70.9062 436.656 70.7188 437.688 70.625C438.812 70.4375 439.891 70.3438 440.922 70.3438C445.703 70.3438 449.453 71.6094 452.172 74.1406C454.984 76.5781 456.391 79.5781 456.391 83.1406V196.484H463.984C465.109 196.484 466 196.297 466.656 195.922C467.312 195.453 467.828 194.984 468.203 194.516C468.672 194.047 469.094 193.625 469.469 193.25C469.938 192.781 470.5 192.547 471.156 192.547C471.812 192.547 472.328 192.828 472.703 193.391C473.078 193.859 473.359 194.516 473.547 195.359C473.828 196.109 474.016 197 474.109 198.031C474.203 198.969 474.25 199.906 474.25 200.844C474.25 203.094 474.016 205.25 473.547 207.312C473.172 209.375 472.516 211.203 471.578 212.797C470.734 214.297 469.609 215.516 468.203 216.453C466.797 217.391 465.109 217.859 463.141 217.859H456.391Z" fill="black"/>
<path d="M456.391 217.859V270.594C456.391 273.031 455.594 274.719 454 275.656C452.406 276.688 450.531 277.203 448.375 277.203C446.688 277.203 445 276.969 443.312 276.5C441.719 276.031 440.266 275.375 438.953 274.531C437.641 273.781 436.562 272.938 435.719 272C434.969 270.969 434.594 269.891 434.594 268.766V217.297H424.188C420.906 217.297 417.203 217.344 413.078 217.438C409.047 217.531 405.016 217.625 400.984 217.719C396.953 217.812 393.109 217.906 389.453 218C385.891 218.094 382.891 218.141 380.453 218.141C378.766 218.141 377.125 217.719 375.531 216.875C374.031 215.938 372.672 214.859 371.453 213.641C370.328 212.328 369.391 210.922 368.641 209.422C367.891 207.922 367.516 206.609 367.516 205.484C367.516 203.609 367.938 202.203 368.781 201.266C369.719 200.328 370.703 199.344 371.734 198.312C375.672 188.375 378.719 178.297 380.875 168.078C383.125 157.766 384.812 147.969 385.938 138.688C387.062 129.406 387.766 120.969 388.047 113.375C388.328 105.687 388.469 99.5 388.469 94.8125C388.469 93.7813 388.375 92.7031 388.188 91.5781C388.094 90.3594 387.953 89.2344 387.766 88.2031C387.578 87.1719 387.391 86.3281 387.203 85.6719C387.109 84.9219 387.062 84.4531 387.062 84.2656C387.062 81.9219 389.641 80.75 394.797 80.75C396.391 80.75 398.078 80.9844 399.859 81.4531C401.734 81.9219 403.469 82.7656 405.062 83.9844C406.656 85.2031 407.969 86.9375 409 89.1875C410.125 91.4375 410.688 94.2969 410.688 97.7656C410.688 103.766 410.406 110.891 409.844 119.141C409.281 127.297 408.344 135.875 407.031 144.875C405.719 153.781 403.984 162.781 401.828 171.875C399.766 180.875 397.234 189.172 394.234 196.766C399.484 196.578 405.156 196.438 411.25 196.344C417.438 196.25 423.297 196.203 428.828 196.203H434.594V84.5469C434.594 82.4844 434.406 80.8438 434.031 79.625C433.75 78.3125 433.422 77.3281 433.047 76.6719C432.766 75.9219 432.438 75.3594 432.062 74.9844C431.781 74.5156 431.641 74.0469 431.641 73.5781C431.641 73.1094 431.922 72.6875 432.484 72.3125C433.047 71.8438 433.797 71.4688 434.734 71.1875C435.672 70.9062 436.656 70.7188 437.688 70.625C438.812 70.4375 439.891 70.3438 440.922 70.3438C445.703 70.3438 449.453 71.6094 452.172 74.1406C454.984 76.5781 456.391 79.5781 456.391 83.1406V196.484H463.984C465.109 196.484 466 196.297 466.656 195.922C467.312 195.453 467.828 194.984 468.203 194.516C468.672 194.047 469.094 193.625 469.469 193.25C469.938 192.781 470.5 192.547 471.156 192.547C471.812 192.547 472.328 192.828 472.703 193.391C473.078 193.859 473.359 194.516 473.547 195.359C473.828 196.109 474.016 197 474.109 198.031C474.203 198.969 474.25 199.906 474.25 200.844C474.25 203.094 474.016 205.25 473.547 207.312C473.172 209.375 472.516 211.203 471.578 212.797C470.734 214.297 469.609 215.516 468.203 216.453C466.797 217.391 465.109 217.859 463.141 217.859H456.391Z" fill="url(#paint1_linear)"/>
<rect x="138" y="72" width="200" height="200" rx="15" fill="black"/>
<rect x="138" y="72" width="200" height="200" rx="15" fill="url(#paint2_linear)"/>
<ellipse cx="238" cy="172" rx="60" ry="60" fill="white"/>
<circle cx="238" cy="172" r="40" fill="#D4437B"/>
<circle cx="238" cy="172" r="40" fill="url(#paint3_linear)"/>
<circle cx="224.4" cy="156.8" r="20" fill="white"/>
<defs>
<linearGradient id="paint0_linear" x1="21" y1="69" x2="145" y2="357" gradientUnits="userSpaceOnUse">
<stop stop-color="#D4437B"/>
<stop offset="0.489583" stop-color="#F75F50"/>
<stop offset="0.984772" stop-color="#FFAC4D"/>
</linearGradient>
<linearGradient id="paint1_linear" x1="385" y1="69" x2="509" y2="357" gradientUnits="userSpaceOnUse">
<stop stop-color="#D4437B"/>
<stop offset="0.489583" stop-color="#F75F50"/>
<stop offset="0.984772" stop-color="#FFAC4D"/>
</linearGradient>
<linearGradient id="paint2_linear" x1="138" y1="72" x2="338" y2="283" gradientUnits="userSpaceOnUse">
<stop stop-color="#D4437B"/>
<stop offset="0.489583" stop-color="#F75F50"/>
<stop offset="1" stop-color="#FFAC4D"/>
</linearGradient>
<linearGradient id="paint3_linear" x1="211" y1="146.5" x2="270" y2="212" gradientUnits="userSpaceOnUse">
<stop stop-color="#D4437B"/>
<stop offset="0.510417" stop-color="#F75F50"/>
<stop offset="1" stop-color="#FFAC4D"/>
</linearGradient>
</defs>
</svg>
